<?xml version="1.0" encoding="utf-8"?>
<!-- Generator: Adobe Illustrator 23.0.3, SVG Export Plug-In . SVG Version: 6.00 Build 0)  -->
<svg version="1.1" id="Capa_1" xmlns="http://www.w3.org/2000/svg" xmlns:xlink="http://www.w3.org/1999/xlink" x="0px" y="0px"
	 viewBox="0 0 600 600" style="enable-background:new 0 0 600 600;" xml:space="preserve">
<style type="text/css">
	.st0{fill:#231F20;}
</style>
<g>
	<path class="st0" d="M299.99,67.51c-128.2,0-232.52,104.3-232.52,232.52c0,128.22,104.31,232.52,232.52,232.52
		c128.21,0,232.53-104.3,232.53-232.52C532.52,171.81,428.21,67.51,299.99,67.51z M299.99,518.25
		c-120.32,0-218.21-97.89-218.21-218.22c0-120.33,97.89-218.22,218.21-218.22c120.33,0,218.22,97.89,218.22,218.22
		C518.21,420.36,420.32,518.25,299.99,518.25z"/>
	<path class="st0" d="M302.34,387.41c-25.1,0-45.54,20.43-45.54,45.55c0,25.1,20.43,45.53,45.54,45.53
		c25.11,0,45.54-20.43,45.54-45.53C347.88,407.84,327.45,387.41,302.34,387.41z M302.34,464.7c-17.51,0-31.75-14.24-31.75-31.74
		c0-17.51,14.23-31.75,31.75-31.75c17.5,0,31.75,14.23,31.75,31.75C334.08,450.46,319.84,464.7,302.34,464.7z"/>
	<path class="st0" d="M302.42,358.75c12.39,0,23.97-4.88,32.61-13.75l-9.88-9.64c-6.03,6.18-14.1,9.59-22.74,9.59
		c-17.5,0-31.74-14.23-31.74-31.74c0-17.5,14.24-31.74,31.74-31.74c7.31,0.01,14.17,2.42,19.85,6.96l8.62-10.76
		c-8.03-6.44-18.14-9.99-28.47-10c-25.11,0-45.54,20.42-45.54,45.54C256.88,338.32,277.31,358.75,302.42,358.75z"/>
	<path class="st0" d="M203.44,228.41c-17.52,0-31.76-14.23-31.76-31.74c0-17.5,14.24-31.75,31.75-31.75
		c7.31,0.01,14.17,2.42,19.85,6.97l8.63-10.76c-8.03-6.45-18.14-10-28.47-10c-25.12,0-45.55,20.43-45.55,45.54
		c0,25.11,20.43,45.54,45.55,45.54c12.38,0,23.96-4.87,32.6-13.75l-9.87-9.63C220.14,225.02,212.07,228.41,203.44,228.41z"/>
	<polygon class="st0" points="395.11,270.41 381.32,270.41 381.32,356.66 433.01,356.66 433.01,342.87 395.11,342.87 	"/>
	<polygon class="st0" points="295.05,239.1 308.84,239.1 308.84,203.96 341.14,153.87 324.73,153.87 302.04,189.05 280.31,153.87 
		264.09,153.87 295.05,203.98 	"/>
</g>
</svg>
